# xmcd
#
# Track frame offsets: 
#        150
#        8547
#        24158
#        38264
#        55181
#        68875
#        71977
#        93120
#        108664
#        123465
#        128474
#        137479
#        153365
#        168428
#        182827
#        189327
#        210527
#
# Disc length: 3016 seconds
#
# Revision: 0
# Processed by: cddbd v1.5.2PL0 Copyright (c) Steve Scherf et al.
# Submitted via: ExactAudioCopyFreeDBPlugin 1.0
#
DISCID=d50bc611
DTITLE=Serdar Somuncu - Sysphs
DYEAR=2019
DGENRE=No, thanks.
TTITLE0=Intro
TTITLE1=Wir sind hier
TTITLE2=Baby bleib hier
TTITLE3=Du lügst
TTITLE4=Lily Girl (ZMX)
TTITLE5=Interlude, Pt. 2
TTITLE6=Komm (ZMX)
TTITLE7=Süchtig
TTITLE8=Sextape (ZMX)
TTITLE9=Interlude, Pt. 3
TTITLE10=In diesem Moment
TTITLE11=Du bist da
TTITLE12=Dunkle Liebe
TTITLE13=Rockstar
TTITLE14=Outro
TTITLE15=Komm
TTITLE16=Du bist da (ZMX)
EXTD=
EXTT0=
EXTT1=
EXTT2=
EXTT3=
EXTT4=
EXTT5=
EXTT6=
EXTT7=
EXTT8=
EXTT9=
EXTT10=
EXTT11=
EXTT12=
EXTT13=
EXTT14=
EXTT15=
EXTT16=
PLAYORDER=
